<svg xmlns="http://www.w3.org/2000/svg" xmlns:xlink="http://www.w3.org/1999/xlink" width="902.268" height="539.986" viewBox="0 0 902.268 539.986">
  <defs>
    <linearGradient id="linear-gradient" y1="0.5" x2="1" y2="0.5" gradientUnits="objectBoundingBox">
      <stop offset="0" stop-color="#fc5e5e"/>
      <stop offset="1" stop-color="#fd9e9e"/>
    </linearGradient>
  </defs>
  <g id="hr-recruitment-illustration" transform="translate(-440.401 -209.115)">
    <path id="Path_7218" data-name="Path 7218" d="M532.938,347.322s-143.9,80.527-9.723,298.326,630.061,9.723,630.061,9.723,171.128-89.453,180.851-169.183,25.281-212.315-138.069-234.5S618.5,250.172,532.938,347.322Z" transform="translate(3.021 4.067)" fill="#e1eaff" opacity="0.5"/>
    <g id="Group_5663" data-name="Group 5663" transform="translate(440.401 375.07)">
      <path id="Path_7219" data-name="Path 7219" d="M621.231,512.515S578.088,378.428,440.4,357.552c0,0,45.515,150.582,143.945,191.136Z" transform="translate(-440.401 -357.552)" fill="#a0b7f6"/>
      <g id="Group_5662" data-name="Group 5662" transform="translate(0.755 0.518)">
        <line id="Line_217" data-name="Line 217" x2="165.085" y2="169.855" fill="none" stroke="#fff" stroke-miterlimit="10" stroke-width="1"/>
        <line id="Line_218" data-name="Line 218" x1="9.563" y1="66.467" transform="translate(127.668 75.98)" fill="none" stroke="#fff" stroke-miterlimit="10" stroke-width="1"/>
        <line id="Line_219" data-name="Line 219" x1="10.823" y1="75.219" transform="translate(108.385 47.538)" fill="none" stroke="#fff" stroke-miterlimit="10" stroke-width="1"/>
        <line id="Line_220" data-name="Line 220" x1="58.502" y1="16.134" transform="translate(27.371 73.224)" fill="none" stroke="#fff" stroke-miterlimit="10" stroke-width="1"/>
      </g>
    </g>
    <g id="Group_5664" data-name="Group 5664" transform="translate(1127.122 292.141)">
      <path id="Path_7220" data-name="Path 7220" d="M1109.691,505.2s39.436-18.485,38.2-44.364-24.648-14.789,7.393-48.678c0,0,17.253-20.85,3.7-40.926s12.324-32.4,12.324-32.4,19.717-27.112-13.556-55.456c0,0-50.245,8.269-38.2,44.365,0,0,8.625,18.485-28.344,35.738,0,0-18.485,14.788,0,54.223,0,0-46.83,17.121-34.506,50.46,0,0,6.161,17.8,9.859,27.42" transform="translate(-1054.634 -283.377)" fill="#a0b7f6"/>
      <line id="Line_221" data-name="Line 221" x1="51.759" y2="162.67" transform="translate(39.037 36.971)" fill="none" stroke="#fff" stroke-miterlimit="10" stroke-width="1"/>
      <line id="Line_222" data-name="Line 222" x1="29.884" y2="8.384" transform="translate(41.193 182.63)" fill="none" stroke="#fff" stroke-miterlimit="10" stroke-width="1"/>
      <line id="Line_223" data-name="Line 223" x1="21.258" y2="14.854" transform="translate(72.928 80.428)" fill="none" stroke="#fff" stroke-miterlimit="10" stroke-width="1"/>
      <line id="Line_224" data-name="Line 224" x2="13.248" y2="25.637" transform="translate(51.822 91.297)" fill="none" stroke="#fff" stroke-miterlimit="10" stroke-width="1"/>
    </g>
    <g id="Group_5669" data-name="Group 5669" transform="translate(684.544 209.115)">
      <g id="Group_5665" data-name="Group 5665" transform="translate(199.235 268.687)">
        <path id="Rectangle_1809" data-name="Rectangle 1809" d="M10,0H42.19a10,10,0,0,1,10,10V158.52a0,0,0,0,1,0,0H0a0,0,0,0,1,0,0V10A10,10,0,0,1,10,0Z" transform="translate(52.19 158.52) rotate(180)" fill="#cfdbfb"/>
      </g>
      <g id="Group_5666" data-name="Group 5666" transform="translate(0 33.837)">
        <rect id="Rectangle_1810" data-name="Rectangle 1810" width="450.66" height="317.918" rx="15.253" transform="translate(450.66 317.918) rotate(180)" fill="#a0b7f6"/>
      </g>
      <g id="Group_5667" data-name="Group 5667" transform="translate(17.648)">
        <rect id="Rectangle_1811" data-name="Rectangle 1811" width="415.362" height="301.935" transform="translate(415.362 301.935) rotate(180)" fill="#fff"/>
      </g>
      <g id="Group_5668" data-name="Group 5668" transform="translate(17.648 0)">
        <path id="Rectangle_1812" data-name="Rectangle 1812" d="M0,0H415.362a0,0,0,0,1,0,0V28.469a8,8,0,0,1-8,8H8a8,8,0,0,1-8-8V0A0,0,0,0,1,0,0Z" transform="translate(415.362 36.469) rotate(180)" fill="url(#linear-gradient)"/>
      </g>
      <path id="Path_7221" data-name="Path 7221" d="M794.635,600.631v-8.069a8.945,8.945,0,0,1,8.944-8.944H925.942a8.945,8.945,0,0,1,8.944,8.944v8.069Z" transform="translate(-642.74 -164.918)" fill="#cfdbfb"/>
      <rect id="Rectangle_1813" data-name="Rectangle 1813" width="59.241" height="13.781" rx="3.296" transform="translate(34.998 11.344)" fill="#fff"/>
    </g>
    <g id="Group_5678" data-name="Group 5678" transform="translate(1017.766 345.324)">
      <path id="Path_7222" data-name="Path 7222" d="M1024.415,364.745a33.809,33.809,0,0,1-23.145,32.083c-.2.068-.407.135-.61.2a33.8,33.8,0,1,1,23.756-32.279Z" transform="translate(-956.821 -330.946)" fill="#cfdbfb"/>
      <g id="Group_5670" data-name="Group 5670" transform="translate(25.554 15.568)">
        <path id="Path_7223" data-name="Path 7223" d="M979.848,359.533s-2.309-14.933,10.06-14.658,12.2,7.66,11.982,14.989-4.958,6.779.387,16.973-4.629,10.2-4.629,10.2l-7.74-10.635Z" transform="translate(-979.677 -344.871)" fill="#5a4051"/>
      </g>
      <g id="Group_5671" data-name="Group 5671" transform="translate(25.696 16.831)">
        <path id="Path_7224" data-name="Path 7224" d="M988.54,346.174s-8.377,1.322-8.707,13.225,2.258,14.438,9.589,11.959,9.643-14.934,9.808-16.864S999.836,344.741,988.54,346.174Z" transform="translate(-979.805 -346)" fill="#ffc8b7"/>
      </g>
      <g id="Group_5672" data-name="Group 5672" transform="translate(18.453 46.556)">
        <path id="Path_7225" data-name="Path 7225" d="M1004.014,384.438a8.1,8.1,0,0,1-4.692,7.475c-.2.068-.407.135-.61.2a33.933,33.933,0,0,1-25.065-2c-1.018-2.033.458-4.918,3.455-9.347,2.059-3.044,4.077-6.151,7.53-7.663,5.1-.811,10.487-.86,14.287,1.288C1001.946,376.1,1003.963,379.21,1004.014,384.438Z" transform="translate(-973.326 -372.588)" fill="#fc5e5e"/>
      </g>
      <g id="Group_5673" data-name="Group 5673" transform="translate(20.018 48.019)">
        <path id="Path_7226" data-name="Path 7226" d="M978.579,380.432l-3.853,6.07c.009-.034.266-.951.7-3.613.084-.505.172-1.073.267-1.711a4.424,4.424,0,0,1,.122-.559h0c1.648-3.8,6.79-6.628,6.975-6.723Z" transform="translate(-974.726 -373.896)" fill="#e55353"/>
      </g>
      <g id="Group_5674" data-name="Group 5674" transform="translate(39.506 48.289)">
        <path id="Path_7227" data-name="Path 7227" d="M1003.508,388.829a33.689,33.689,0,0,1-6.408,2.9c-.2.068-.407.135-.61.2-.854-2.2-1.6-4.113-1.757-4.607-.047-.143-.156-.411-.306-.773-.694-1.688-2.249-5.44-2.268-8.376-.012-1.894.613-3.446,2.518-3.887a4.957,4.957,0,0,1,2.021-.075c2.126.386,3.367,2.3,4.061,3.99.011.029.021.057.031.085a13.036,13.036,0,0,1,.759,2.7l.094.372c.121.472.35,1.37.646,2.545C1002.626,385.249,1003.053,386.964,1003.508,388.829Z" transform="translate(-992.157 -374.137)" fill="#eea886"/>
      </g>
      <g id="Group_5675" data-name="Group 5675" transform="translate(29.26 36.652)">
        <path id="Path_7228" data-name="Path 7228" d="M993.757,363.9c-.726,1.371-1.494,9.882-1.494,9.882s-10.244,3.873-9.2,1.683a8.4,8.4,0,0,0,.625-3.4,16.361,16.361,0,0,0-.114-2.066c-.027-.225-.047-.353-.047-.353S994.483,362.533,993.757,363.9Z" transform="translate(-982.993 -363.729)" fill="#ffc8b7"/>
      </g>
      <g id="Group_5676" data-name="Group 5676" transform="translate(25.724 16.63)">
        <path id="Path_7229" data-name="Path 7229" d="M985.121,354.737s4.3,7,8.211,9.754,1.929,4.96,1.929,4.96,10.208-21.492.5-22.98-15.657-1.6-15.933,12.95C979.83,359.421,984.238,354.626,985.121,354.737Z" transform="translate(-979.83 -345.821)" fill="#5a4051"/>
      </g>
      <g id="Group_5677" data-name="Group 5677" transform="translate(29.847 42.051)">
        <path id="Path_7230" data-name="Path 7230" d="M989.36,368.558c-1.574,2.32-5.729,2.944-5.729,2.944h0a16.361,16.361,0,0,0-.114-2.066A11.7,11.7,0,0,0,989.36,368.558Z" transform="translate(-983.517 -368.558)" fill="#f4a99d"/>
      </g>
      <path id="Path_7231" data-name="Path 7231" d="M975.759,380.578h0a8.674,8.674,0,0,0-.406,2.314l1.51-2.277s2.694-3.864,3.618-4.869a14.158,14.158,0,0,1,2.26-1.887S977.37,376.409,975.759,380.578Z" transform="translate(-954.634 -325.882)" fill="#bd4444"/>
      <path id="Path_7232" data-name="Path 7232" d="M994.2,386.315s6.575-2.578,8.52-2.729c0,0-1.323-10.559-7.782-9.439S994.2,386.315,994.2,386.315Z" transform="translate(-952.686 -325.858)" fill="#e55353"/>
      <path id="Path_7233" data-name="Path 7233" d="M983.811,373.173s-4.827,7.424-3.193,8.072,10.479-.865,14.241-7.916C994.859,373.329,989.236,370.445,983.811,373.173Z" transform="translate(-954.052 -326.101)" fill="#ffc8b7"/>
    </g>
    <g id="Group_5688" data-name="Group 5688" transform="translate(1007.586 236.542)">
      <path id="Path_7234" data-name="Path 7234" d="M1035.669,277.624a43.977,43.977,0,1,1-43.975-43.977A43.977,43.977,0,0,1,1035.669,277.624Z" transform="translate(-947.716 -233.647)" fill="#cfdbfb"/>
      <g id="Group_5687" data-name="Group 5687" transform="translate(9.177 19.293)">
        <g id="Group_5679" data-name="Group 5679" transform="translate(6.155 38.72)">
          <path id="Path_7235" data-name="Path 7235" d="M1018.719,295.767l-3.243,11.637a43.748,43.748,0,0,1-20,7.743q-1.95.24-3.954.305c-.481.017-.962.023-1.444.023q-2.135,0-4.218-.2a43.265,43.265,0,0,1-4.575-.681,43.75,43.75,0,0,1-17.977-8.2c-.622-3.848-1.29-8.107-1.877-12.09,3.232-1.2,13.519-4.7,20.011-6.9.092-.032.182-.062.271-.091.142-.05.283-.1.423-.143l1.1-.373c.357-.12.694-.233,1.011-.342l2.6-.874,0,0,.133-.045.075,0,8.731.655,1.465.108.456.035.2.049c.526.134,2.056.536,4.081,1.154l.009,0C1007.172,289.125,1015.558,292.13,1018.719,295.767Z" transform="translate(-961.429 -285.536)" fill="#fff"/>
        </g>
        <g id="Group_5680" data-name="Group 5680" transform="translate(24.394 2.729)">
          <path id="Path_7236" data-name="Path 7236" d="M990.438,253.462s10.471,1.768,8.694,18.159-11.017,14.946-11.634,14.922-9.3.2-9.755-19.844C977.743,266.7,977.609,251.882,990.438,253.462Z" transform="translate(-977.743 -253.344)" fill="#ffc8b7"/>
        </g>
        <g id="Group_5681" data-name="Group 5681" transform="translate(27.926 29.28)">
          <path id="Path_7237" data-name="Path 7237" d="M994.652,278.989s-.36,6.746.276,8.214-8.405,6.113-14.027.822c0,0,1.138-7.373.784-9.977S994.652,278.989,994.652,278.989Z" transform="translate(-980.902 -277.093)" fill="#ffc8b7"/>
        </g>
        <g id="Group_5682" data-name="Group 5682" transform="translate(45.312 15.842)">
          <path id="Path_7238" data-name="Path 7238" d="M997.137,265.6s1.162-1.214,1.57.032-1.856,6.772-1.714,7.022c0,0-.216.48-.489.211S997.137,265.6,997.137,265.6Z" transform="translate(-996.453 -265.073)" fill="#ffc8b7"/>
        </g>
        <g id="Group_5683" data-name="Group 5683" transform="translate(22.866 15.361)">
          <path id="Path_7239" data-name="Path 7239" d="M978.024,265.212s-1.11-1.26-1.569-.031,1.215,6.745,1.423,7.086c0,0,.361.566.645.31S978.024,265.212,978.024,265.212Z" transform="translate(-976.376 -264.643)" fill="#ffc8b7"/>
        </g>
        <g id="Group_5684" data-name="Group 5684" transform="translate(23.66)">
          <path id="Path_7240" data-name="Path 7240" d="M1000.093,265.883c-.36,2.243-.7,3.91-.7,3.91l-1.525,1.99a39.989,39.989,0,0,0-.142-5.093c-.088-.262-.192-.726-.3-1.228-.176-.83-.354-1.765-.476-2.077-.2-.5-8.974-3.061-16.792.538,0,0,.066.677.061,1.433,0,.878-.1,1.862-.5,2.009-.75.275-.437,5.15-.437,5.15l-1.219-1.406s-.352-2.547-.7-5.474a.094.094,0,0,1,0-.021c-.078-.682-.159-1.384-.236-2.081-.174-2.945.119-8.291,3.951-11.432,2.587-1.108,6.718-2.049,13.6.059a4.746,4.746,0,0,1,2.022.531C1000.989,257.412,1000.093,265.883,1000.093,265.883Z" transform="translate(-977.086 -250.903)" fill="#5a4051"/>
        </g>
        <path id="Path_7241" data-name="Path 7241" d="M982.245,281.079a6.672,6.672,0,0,0,5.554,2.233c3.882-.087,5.568-2.112,5.568-2.112s-1.838,3.845-5.587,3.8S982.245,281.079,982.245,281.079Z" transform="translate(-952.818 -247.342)" fill="#f4a99d"/>
        <path id="Path_7242" data-name="Path 7242" d="M979.948,287.208s2.806,4.885,8.13,5.345c3.376.292,6.3-3.988,7.671-6.09A20.457,20.457,0,0,0,979.948,287.208Z" transform="translate(-953.089 -246.853)" fill="#ffc8b7"/>
        <path id="Path_7243" data-name="Path 7243" d="M993.919,284.95a29.013,29.013,0,0,1-6.7,5.8l2.835,4.37,4.835-8.63Z" transform="translate(-952.231 -246.885)" fill="#cfdbfb"/>
        <path id="Path_7244" data-name="Path 7244" d="M981.273,285.535a19.453,19.453,0,0,0,6.85,5.151l-3.113,4.5-5.44-7.873Z" transform="translate(-953.133 -246.816)" fill="#cfdbfb"/>
        <path id="Path_7245" data-name="Path 7245" d="M987.483,290.142l2.431,3.7a5.063,5.063,0,0,1-4.926-.092Z" transform="translate(-952.494 -246.272)" fill="#134de9"/>
        <path id="Path_7246" data-name="Path 7246" d="M1017.934,294.984c-.418,1.5-1.045,3.689-2.7,9.7-.5.436-1.017.863-1.544,1.272q-.885.7-1.81,1.358a43.748,43.748,0,0,1-20,7.743c.652-15.223,2.46-28.722,2.46-28.722q2.138.56,4.056,1.115l.009,0c11.159,3.2,16.818,6.013,18.748,7.079.015.007.029.016.042.023C1017.7,294.832,1017.934,294.984,1017.934,294.984Z" transform="translate(-951.681 -246.722)" fill="#323657"/>
        <path id="Path_7247" data-name="Path 7247" d="M981.776,314.4a43.994,43.994,0,0,1-22.417-12.113c-.269-.273-.537-.549-.8-.828-.77-3.268-1.282-5.4-1.315-5.541v-.007s5.44-3.575,24.689-8.712v.011C981.934,287.65,981.946,300,981.776,314.4Z" transform="translate(-955.768 -246.62)" fill="#323657"/>
        <path id="Path_7248" data-name="Path 7248" d="M989.076,293.956c-.179,4.008-.2,11.787-.134,20.662-.481.017-.962.023-1.444.023q-2.135,0-4.218-.2a134.89,134.89,0,0,1,2.922-20.5c.212-.887.342-1.329.342-1.329l2.582.426C989.1,293.319,989.09,293.624,989.076,293.956Z" transform="translate(-952.696 -245.981)" fill="#134de9"/>
        <g id="Group_5685" data-name="Group 5685" transform="translate(62.012 48.262)">
          <path id="Path_7249" data-name="Path 7249" d="M1017.849,298.783a44.206,44.206,0,0,1-4.915,4.983c-.5.436-1.017.863-1.544,1.272l4.242-10.968C1016.664,294.943,1017.5,297.926,1017.849,298.783Z" transform="translate(-1011.39 -294.071)" fill="#323657"/>
        </g>
        <g id="Group_5686" data-name="Group 5686" transform="translate(0 49.291)">
          <path id="Path_7250" data-name="Path 7250" d="M959.515,301.367c-.269-.273-.537-.549-.8-.828q-1.477-1.563-2.793-3.266a5.085,5.085,0,0,1,1.477-2.282V295Z" transform="translate(-955.924 -294.991)" fill="#323657"/>
        </g>
      </g>
    </g>
    <g id="Group_5691" data-name="Group 5691" transform="translate(1028.651 424.93)">
      <circle id="Ellipse_1913" data-name="Ellipse 1913" cx="22.616" cy="22.616" r="22.616" transform="translate(0 0.595) rotate(-0.754)" fill="#eef0f7"/>
      <g id="Group_5689" data-name="Group 5689" transform="translate(21.773 13.893)">
        <path id="Path_7251" data-name="Path 7251" d="M987.171,432.612a1.14,1.14,0,0,1-1.139-1.139V415.715a1.139,1.139,0,1,1,2.278,0v15.757A1.14,1.14,0,0,1,987.171,432.612Z" transform="translate(-986.032 -414.576)" fill="#203442"/>
      </g>
      <g id="Group_5690" data-name="Group 5690" transform="translate(13.894 21.772)">
        <path id="Path_7252" data-name="Path 7252" d="M995.88,423.9H980.124a1.139,1.139,0,1,1,0-2.279H995.88a1.139,1.139,0,1,1,0,2.279Z" transform="translate(-978.985 -421.623)" fill="#203442"/>
      </g>
    </g>
    <g id="Group_5696" data-name="Group 5696" transform="translate(837.252 268.308)">
      <g id="Group_5692" data-name="Group 5692">
        <path id="Rectangle_1814" data-name="Rectangle 1814" d="M4.414,0h13a4.413,4.413,0,0,1,4.413,4.413v13a4.413,4.413,0,0,1-4.413,4.413h-13A4.414,4.414,0,0,1,0,17.414v-13A4.414,4.414,0,0,1,4.414,0Z" fill="#a0b7f6"/>
      </g>
      <g id="Group_5695" data-name="Group 5695" transform="translate(4.332 6.106)">
        <g id="Group_5694" data-name="Group 5694">
          <g id="Group_5693" data-name="Group 5693">
            <path id="Path_7253" data-name="Path 7253" d="M805.126,277.136l-5.518-4.81a1.087,1.087,0,0,1,1.429-1.639l3.9,3.4,5.564-6.206a1.087,1.087,0,0,1,1.619,1.451Z" transform="translate(-799.236 -267.521)" fill="#f3f3f3"/>
          </g>
        </g>
      </g>
    </g>
    <g id="Group_5701" data-name="Group 5701" transform="translate(837.252 298.03)">
      <g id="Group_5697" data-name="Group 5697">
        <path id="Rectangle_1815" data-name="Rectangle 1815" d="M4.414,0h13a4.413,4.413,0,0,1,4.413,4.413v13a4.413,4.413,0,0,1-4.413,4.413h-13A4.414,4.414,0,0,1,0,17.414v-13A4.414,4.414,0,0,1,4.414,0Z" fill="#fc5e5e"/>
      </g>
      <g id="Group_5700" data-name="Group 5700" transform="translate(4.332 6.106)">
        <g id="Group_5699" data-name="Group 5699">
          <g id="Group_5698" data-name="Group 5698">
            <path id="Path_7254" data-name="Path 7254" d="M805.126,303.722l-5.518-4.811a1.087,1.087,0,0,1,1.429-1.639l3.9,3.4,5.564-6.207a1.087,1.087,0,0,1,1.619,1.451Z" transform="translate(-799.236 -294.106)" fill="#f3f3f3"/>
          </g>
        </g>
      </g>
    </g>
    <g id="Group_5703" data-name="Group 5703" transform="translate(837.252 327.668)">
      <g id="Group_5702" data-name="Group 5702" transform="translate(0 0)">
        <path id="Rectangle_1816" data-name="Rectangle 1816" d="M4.414,0h13a4.413,4.413,0,0,1,4.413,4.413v13a4.413,4.413,0,0,1-4.413,4.413h-13A4.414,4.414,0,0,1,0,17.413v-13A4.414,4.414,0,0,1,4.414,0Z" fill="#a0b7f6"/>
      </g>
    </g>
    <path id="Path_7255" data-name="Path 7255" d="M774.01,611.327a24.369,24.369,0,0,1-2.971,5.06c-1.361,1.437-6.565,4-6.593,8.269-.03,4.626,8.773,3.342,12.217,3.173s3.7-2.64,5.152-5.259,2.912-2.175,3.183-4.289-1.109-6.84-1.109-6.84Z" transform="translate(38.242 47.467)" fill="#070707"/>
    <path id="Path_7256" data-name="Path 7256" d="M772.894,610.2l-.253,2.192a19.126,19.126,0,0,0,10.534.191l-.285-3Z" transform="translate(39.209 47.261)" fill="#c1a499"/>
    <path id="Path_7257" data-name="Path 7257" d="M830.942,611.327a24.315,24.315,0,0,0,2.971,5.06c1.361,1.437,6.564,4,6.592,8.269.031,4.626-8.773,3.342-12.215,3.173s-3.7-2.64-5.153-5.259-2.911-2.175-3.183-4.289,1.11-6.84,1.11-6.84Z" transform="translate(44.788 47.467)" fill="#070707"/>
    <path id="Path_7258" data-name="Path 7258" d="M831,610.2l.253,2.192a19.127,19.127,0,0,1-10.534.191l.284-3Z" transform="translate(44.882 47.261)" fill="#c1a499"/>
    <path id="Path_7259" data-name="Path 7259" d="M834.136,567.262c0,5.7,5.325,57.768,5.325,57.768-.612,1.9-13.68,1.669-15.719.719s-7.964-52.548-8.34-58.3-8.886-55.759-10.674-55.568-10.258,53.781-11.687,58.154-7.9,56.208-7.9,56.208c-4.484,2.47-15.146-.623-15.146-.623s2.235-53.22,2.49-54.826c.379-2.379-.017-8.788,1.021-23.013.929-12.723,4.281-40.425,6.405-55.428.077-.534.149-1.047.219-1.538.417-2.919.729-5.065.879-6.093l.1-.682c.572-.245,1.173-.473,1.8-.681,14.931-5,43.352-4.683,43.352-4.683s.392,5.107.425,5.356c.038.3.1.774.174,1.385.165,1.323.414,3.294.7,5.58a.346.346,0,0,0,0,.048l.026.208c1,8.138,2.425,20.05,2.291,21.289C829.673,514.446,834.136,561.559,834.136,567.262Z" transform="translate(38.897 31.812)" fill="#203442"/>
    <g id="Group_5704" data-name="Group 5704" transform="translate(816.054 419.798)">
      <path id="Path_7260" data-name="Path 7260" d="M835.506,408.171l-7.334,26.317c-.253.854-.552,1.9-.87,3.125l-.013.047a.136.136,0,0,0-.009.032,103.379,103.379,0,0,0-3.191,19.787c-.305,5.417.7,27.189.7,27.189s-11.1,4.142-27.71,3.094c0,0-17.866-.418-16.408-11.372,3.854-28.992.083-40.946-.422-43.856,0,0-2.111-13.359-3.847-25.156,5.029-1.873,26.191-9.817,26.191-9.817l11.125.833S830.622,402.555,835.506,408.171Z" transform="translate(-776.401 -397.559)" fill="#fff"/>
    </g>
    <g id="Group_5705" data-name="Group 5705" transform="translate(838.32 410.009)">
      <path id="Path_7261" data-name="Path 7261" d="M810.578,390.77s-.375,7,.287,8.52-8.72,6.341-14.549.853c0,0,1.178-7.648.813-10.348S810.578,390.77,810.578,390.77Z" transform="translate(-796.317 -388.803)" fill="#ffc8b7"/>
    </g>
    <g id="Group_5706" data-name="Group 5706" transform="translate(833.072 395.573)">
      <path id="Path_7262" data-name="Path 7262" d="M793.332,376.482s-1.152-1.308-1.628-.035,1.261,7,1.478,7.351c0,0,.372.587.667.321S793.332,376.482,793.332,376.482Z" transform="translate(-791.623 -375.891)" fill="#eea987"/>
    </g>
    <path id="Path_7263" data-name="Path 7263" d="M795.327,399.3s2.91,5.066,8.432,5.543c3.5.3,6.507-4.148,7.929-6.327A21.163,21.163,0,0,0,795.327,399.3Z" transform="translate(41.886 22.2)" fill="#ffc8b7"/>
    <path id="Path_7264" data-name="Path 7264" d="M809.819,396.953a30.151,30.151,0,0,1-6.95,6.021l2.941,4.531,5.014-8.983Z" transform="translate(42.776 22.168)" fill="#cfdbfb"/>
    <path id="Path_7265" data-name="Path 7265" d="M796.7,397.559a20.185,20.185,0,0,0,7.1,5.343l-3.229,4.669-5.608-7.971Z" transform="translate(41.844 22.239)" fill="#cfdbfb"/>
    <path id="Path_7266" data-name="Path 7266" d="M803.142,402.338l2.52,3.836a5.245,5.245,0,0,1-5.107-.1Z" transform="translate(42.503 22.803)" fill="#fc5e5e"/>
    <path id="Path_7267" data-name="Path 7267" d="M779.674,480.561s13.624,5.027,44.438.293l-.409-5.579s-17.861,5.268-43.484.756Z" transform="translate(40.039 31.411)" fill="#1a2833"/>
    <path id="Path_7268" data-name="Path 7268" d="M810.28,398.356s-3.186,23.834-2.749,44.363,7.1,59.022,7.1,59.022,11.882-1.164,14.832-4.877c0,0-6.818-37.049-6.624-42.54s8.74-46.785,8.74-46.785S828.24,403.084,810.28,398.356Z" transform="translate(43.321 22.333)" fill="#2f4e60"/>
    <path id="Path_7269" data-name="Path 7269" d="M797.065,399.471s-.03,22.587-.466,43.116-3.141,58.744-3.141,58.744-13.939-1.986-16.89-5.7c0,0,4.914-35.949,4.72-41.44s-6.3-46.381-6.3-46.381S777.1,404.8,797.065,399.471Z" transform="translate(39.486 22.465)" fill="#2f4e60"/>
    <rect id="Rectangle_1817" data-name="Rectangle 1817" width="8.372" height="6.224" transform="translate(838.295 508.402)" fill="#2f4e60"/>
    <path id="Path_7270" data-name="Path 7270" d="M802.249,404.9s-3.739,12.761-4.066,38.106.46,32.615.46,32.615l2.919,5.776,3.89-6.027s-1.247-58.323-.524-70.027Z" transform="translate(42.214 23.106)" fill="#fc5e5e"/>
    <path id="Path_7271" data-name="Path 7271" d="M815.772,437.344s5.534-2.784,6.3-3.275,10.011-1.859,11.175-1.822,1.218.966.887,1.3-9.568,1.847-9.727,2.067.781.14.781.14,9.958-.152,10.653.515-.1,1.3-.506,1.465c0,0,.907,1.042-.141,1.47a15.7,15.7,0,0,1-2.464.7s1.317.678.451,1.281-11.417,3.873-11.417,3.873S817.841,437.555,815.772,437.344Z" transform="translate(44.299 26.333)" fill="#ffc8b7"/>
    <path id="Path_7272" data-name="Path 7272" d="M837.709,459.947c-7.192,1.717-23.816-1.071-30.151-2.467-1.343-.3-2.859-.606-4.417-.911h0c-2.593-.509-5.295-1.005-7.491-1.4h0c-2.7-.483-4.635-.807-4.635-.807s34.89-7.838,36.178-7.838-3.221-20.4-3.221-20.4-4.493-17.08-2.16-23.795c0,0,8.852,2.684,11.717,4.733,1.6,1.14,2.774,8.549,3.863,13.587,1.381,6.384,4.587,20.924,4.951,23.993C842.672,447.447,844.9,458.23,837.709,459.947Z" transform="translate(41.377 22.803)" fill="#2f4e60"/>
    <path id="Path_7273" data-name="Path 7273" d="M787.127,402.412s-10.716,3.66-11.23,5.052c-2.167,5.887-3.175,12.323-3.875,14.9-.855,3.152-2.794,12.577-3.295,15.65-.635,3.92-1.856,17.8-1.324,19.944.671,2.7,7.042,2.507,10.478,1.971s51.17-12.153,51.17-12.153-2.722-8.879-2.861-9.665c0,0-36.8,4.206-41.484,5.205a30.666,30.666,0,0,0-3.257.79S789.565,410.8,787.127,402.412Z" transform="translate(38.575 22.812)" fill="#2f4e60"/>
    <path id="Path_7274" data-name="Path 7274" d="M792.787,438.9s-4.805-3.912-5.448-4.556-9.376-3.971-10.521-4.185a.965.965,0,0,0-1.254,1.155c.153.8,9.055,3.781,9.163,4.033s-.793-.032-.793-.032-9.693-2.294-10.516-1.792-.179,1.287.179,1.538c0,0-1.109.823-.179,1.467a15.451,15.451,0,0,0,2.254,1.215s-1.431.38-.714,1.157,5.814,1.943,5.814,1.943S790.721,438.654,792.787,438.9Z" transform="translate(39.253 26.082)" fill="#ffc8b7"/>
    <path id="Path_7275" data-name="Path 7275" d="M818.836,444.492l-16.184,7.1h0c-2.593-.509-5.295-1.005-7.491-1.4Z" transform="translate(41.866 27.778)" fill="#263947"/>
    <path id="Rectangle_1818" data-name="Rectangle 1818" d="M9.624,0h139.3a9.624,9.624,0,0,1,9.624,9.624V264.745a9.624,9.624,0,0,1-9.624,9.624H9.625A9.625,9.625,0,0,1,0,264.744V9.624A9.624,9.624,0,0,1,9.624,0Z" transform="translate(613.034 383.536)" fill="#203442"/>
    <rect id="Rectangle_1819" data-name="Rectangle 1819" width="146.46" height="249.168" rx="9.509" transform="translate(619.236 401.371)" fill="#fff"/>
    <g id="Group_5708" data-name="Group 5708" transform="translate(652.306 508.106)">
      <g id="Group_5707" data-name="Group 5707">
        <path id="Path_7276" data-name="Path 7276" d="M629.959,476.547a.028.028,0,0,0-.021,0C630.031,476.586,630.044,476.591,629.959,476.547Z" transform="translate(-629.938 -476.545)" fill="#323657"/>
      </g>
    </g>
    <g id="Group_5709" data-name="Group 5709" transform="translate(630.415 412.156)">
      <path id="Path_7277" data-name="Path 7277" d="M647.554,465.116c-1.184,0-2.384-.058-3.565-.17a37.212,37.212,0,0,1-22.831-10.82c-.241-.245-.47-.482-.679-.7-.824-.871-1.618-1.8-2.359-2.759a36.835,36.835,0,0,1-7.762-22.743,37.238,37.238,0,0,1,37.2-37.2v1.668a35.567,35.567,0,0,0-35.527,35.527,35.169,35.169,0,0,0,7.414,21.721,34.7,34.7,0,0,0,2.255,2.639c.2.216.417.44.646.671a35.1,35.1,0,0,0,3.587,3.157,35.556,35.556,0,0,0,14.521,6.628,34.843,34.843,0,0,0,3.7.55c1.129.107,2.276.162,3.408.162.414,0,.794-.007,1.166-.019,1.078-.035,2.153-.117,3.2-.248a35.464,35.464,0,0,0,16.157-6.253c.5-.358,1-.728,1.464-1.1.406-.319.825-.663,1.248-1.03A35.586,35.586,0,0,0,682.7,422.706l1.651-.243a37.794,37.794,0,0,1,.4,5.456,37.229,37.229,0,0,1-8.718,23.929,37.634,37.634,0,0,1-4.156,4.215c-.443.381-.883.743-1.308,1.077-.486.385-1,.771-1.527,1.146a37.166,37.166,0,0,1-16.92,6.55c-1.092.136-2.218.222-3.346.259C648.386,465.109,647.986,465.116,647.554,465.116Z" transform="translate(-610.358 -390.724)" fill="#cfdbfb"/>
    </g>
    <path id="Path_7278" data-name="Path 7278" d="M672.614,445.843a3.079,3.079,0,0,0-.362-.406.609.609,0,0,0-.19-.154c-.012-.009-.023-.013-.034-.021l0,0c-6.933-3.836-19.446-6.96-19.446-6.96-.362-.835-.334-3.729-.282-5.459a15.5,15.5,0,0,0,3.134-7.539c.21.156.37-.2.37-.2-.115-.207,1.755-4.775,1.419-5.806a.54.54,0,0,0-.882-.347q.067-.4.138-.832s.741-7-2.8-10.906a3.922,3.922,0,0,0-1.672-.439c-5.694-1.743-9.109-.965-11.248-.049-3.17,2.6-3.411,7.017-3.266,9.452.063.577.129,1.157.193,1.721l0,.018c.026.221.052.442.078.656a.541.541,0,0,0-.9.309c-.379,1.015,1.005,5.577,1.178,5.858,0,0,.3.468.532.256h0c.655,4.008,1.837,6.474,3.075,7.995-.125,2.249-.527,5.061-.637,5.806h0c-2.907.917-17.485,4.8-21.9,7.694a4.187,4.187,0,0,0-1.22,1.886,35.171,35.171,0,0,0,2.307,2.7c.217.231.438.461.662.685a36.225,36.225,0,0,0,22.317,10.578q1.721.164,3.487.165c.4,0,.8,0,1.194-.02q1.655-.052,3.271-.252a36.172,36.172,0,0,0,16.538-6.4q.763-.543,1.5-1.122.649-.51,1.276-1.053a36.722,36.722,0,0,0,4.063-4.119A17.744,17.744,0,0,0,672.614,445.843Z" transform="translate(20.946 23.204)" fill="#cfdbfb"/>
    <g id="Group_5710" data-name="Group 5710" transform="translate(1118.033 556.526)">
      <rect id="Rectangle_1820" data-name="Rectangle 1820" width="46.899" height="2.782" transform="translate(46.899 2.782) rotate(180)" fill="#e2d2ca"/>
    </g>
    <g id="Group_5712" data-name="Group 5712" transform="translate(1092.772 555.735)">
      <rect id="Rectangle_1822" data-name="Rectangle 1822" width="32.6" height="3.977" transform="translate(32.6 3.977) rotate(180)" fill="#ccbdb7"/>
    </g>
    <g id="Group_5713" data-name="Group 5713" transform="translate(1102.9 521.814)">
      <rect id="Rectangle_1823" data-name="Rectangle 1823" width="12.345" height="37.494" transform="translate(12.345 37.494) rotate(180)" fill="#4667a8"/>
    </g>
    <g id="Group_5714" data-name="Group 5714" transform="translate(1001.132 559.355)">
      <rect id="Rectangle_1824" data-name="Rectangle 1824" width="180.625" height="7.198" transform="translate(180.625 7.198) rotate(180)" fill="#ffad70"/>
    </g>
    <g id="Group_5715" data-name="Group 5715" transform="translate(1196.467 503.689)">
      <path id="Path_7279" data-name="Path 7279" d="M1136.616,484.689s1.975,27.7-3.438,31.019c-3.392,2.076-16.912,9.082-16.51,10.4s7.634,11.689,7.634,11.689,25.969-17.1,26.807-22.491c.818-5.266-1.278-40.564-4.847-42.19-2.674-1.218-4.085-.211-7.455,2.293C1134.078,478.912,1136.616,484.689,1136.616,484.689Z" transform="translate(-1116.659 -472.595)" fill="#0f3b87"/>
    </g>
    <g id="Group_5718" data-name="Group 5718" transform="translate(1166.802 516.303)">
      <g id="Group_5717" data-name="Group 5717">
        <g id="Group_5716" data-name="Group 5716">
          <path id="Path_7280" data-name="Path 7280" d="M1092.415,491.267l-2.29-.847s2.854-6.7,4.1-6.539a30.9,30.9,0,0,1,3.227.662Z" transform="translate(-1090.125 -483.877)" fill="#ead8cf"/>
        </g>
      </g>
    </g>
    <g id="Group_5721" data-name="Group 5721" transform="translate(1168.569 515.858)">
      <g id="Group_5720" data-name="Group 5720">
        <g id="Group_5719" data-name="Group 5719">
          <path id="Path_7281" data-name="Path 7281" d="M1091.706,492.469c.292-.217,4.865-8.99,4.865-8.99l9.77,1.326-5.279,10.392Z" transform="translate(-1091.706 -483.479)" fill="#da9b5b"/>
        </g>
      </g>
    </g>
    <g id="Group_5724" data-name="Group 5724" transform="translate(1184.469 675.156)">
      <g id="Group_5723" data-name="Group 5723">
        <g id="Group_5722" data-name="Group 5722">
          <path id="Path_7282" data-name="Path 7282" d="M1105.928,626.686s.808,5.606.91,6.448,8.982-.5,8.982-.5l.719-6.675S1107.039,625.895,1105.928,626.686Z" transform="translate(-1105.928 -625.963)" fill="#424773"/>
        </g>
      </g>
    </g>
    <g id="Group_5727" data-name="Group 5727" transform="translate(1169.869 681.237)">
      <g id="Group_5726" data-name="Group 5726">
        <g id="Group_5725" data-name="Group 5725">
          <path id="Path_7283" data-name="Path 7283" d="M1108.283,631.779a23.972,23.972,0,0,1-5.536,4.851c-2.721,1.471-7,2.054-8.609,3.579-1.163,1.1-4.233,5.837,7.074,5.74s16.756.669,17.966-1.146-1.752-13.4-1.752-13.4S1114.75,632.364,1108.283,631.779Z" transform="translate(-1092.868 -631.401)" fill="#070707"/>
        </g>
      </g>
    </g>
    <g id="Group_5730" data-name="Group 5730" transform="translate(1127.558 675.211)">
      <g id="Group_5729" data-name="Group 5729">
        <g id="Group_5728" data-name="Group 5728">
          <path id="Path_7284" data-name="Path 7284" d="M1055.024,626.734s.807,5.6.909,6.448,8.984-.5,8.984-.5l.719-6.672S1056.135,625.944,1055.024,626.734Z" transform="translate(-1055.024 -626.012)" fill="#424773"/>
        </g>
      </g>
    </g>
    <g id="Group_5733" data-name="Group 5733" transform="translate(1107.735 681.288)">
      <g id="Group_5732" data-name="Group 5732">
        <g id="Group_5731" data-name="Group 5731">
          <path id="Path_7285" data-name="Path 7285" d="M1057.932,631.828a24,24,0,0,1-5.538,4.849c-2.722,1.474-12.74,2.683-14.349,4.206-1.162,1.1-3.095,5.529,12.813,5.115,11.3-.294,16.757.669,17.969-1.147s-1.754-13.4-1.754-13.4S1064.551,632.477,1057.932,631.828Z" transform="translate(-1037.294 -631.447)" fill="#070707"/>
        </g>
      </g>
    </g>
    <g id="Group_5736" data-name="Group 5736" transform="translate(1120.424 579.05)">
      <g id="Group_5735" data-name="Group 5735">
        <g id="Group_5734" data-name="Group 5734">
          <path id="Path_7286" data-name="Path 7286" d="M1141.341,540s-32.3,5.466-39.59,6.612-46.844,10.986-51.79,13.984c-3.937,2.388,2.065,59.716,3.467,81.59h15.577l1.13-65.612c18.693.468,32.032-4.374,45.645-2.305s24.961,5.005,33.611-6.6C1149.392,567.673,1149.713,542.536,1141.341,540Z" transform="translate(-1048.643 -540.001)" fill="#062d66"/>
        </g>
      </g>
    </g>
    <g id="Group_5739" data-name="Group 5739" transform="translate(1176.466 586.037)">
      <g id="Group_5738" data-name="Group 5738">
        <g id="Group_5737" data-name="Group 5737">
          <path id="Path_7287" data-name="Path 7287" d="M1103.593,641.5l15.182-.938,1.479-64.725c8.046.2,10.806-.31,17.318-1.1l12.257-28.489c-10.742,2.147-45.159,10.827-49.748,13.61C1096.144,562.249,1102.191,619.629,1103.593,641.5Z" transform="translate(-1098.769 -546.25)" fill="#062d66"/>
        </g>
      </g>
    </g>
    <g id="Group_5742" data-name="Group 5742" transform="translate(1179.447 457.432)">
      <g id="Group_5741" data-name="Group 5741" transform="translate(0 0)">
        <g id="Group_5740" data-name="Group 5740">
          <path id="Path_7288" data-name="Path 7288" d="M1120.242,431.786s-11.839-3.271-16.354,5.919-2.47,26.613,3.5,28.252,14.545-.248,17.023-5.968,4.452-13.848,3.859-19.11S1123.387,433.045,1120.242,431.786Z" transform="translate(-1101.436 -431.22)" fill="#ffc8b7"/>
        </g>
      </g>
    </g>
    <g id="Group_5745" data-name="Group 5745" transform="translate(1187.825 482.279)">
      <g id="Group_5744" data-name="Group 5744" transform="translate(0 0)">
        <g id="Group_5743" data-name="Group 5743">
          <path id="Path_7289" data-name="Path 7289" d="M1109.6,461.5s.13,6.991-.641,8.48,16.485,1.117,16.485,1.117-2.719-8.393-1.177-15.545C1125.789,448.474,1109.6,461.5,1109.6,461.5Z" transform="translate(-1108.93 -453.445)" fill="#ffc8b7"/>
        </g>
      </g>
    </g>
    <g id="Group_5748" data-name="Group 5748" transform="translate(1179.08 456.261)">
      <g id="Group_5747" data-name="Group 5747">
        <g id="Group_5746" data-name="Group 5746">
          <path id="Path_7290" data-name="Path 7290" d="M1126.115,455.653s-.921,1.875-5.389,1.572-10.357-5.692-12.254-6.173-2.009-1.561-2.009-1.561l-1,1.785-1.943.294s1.319-5.4-1.556-7.3,1.3-17.217,15.859-13.523c0,0,11.115,2.035,11.265,8.243S1128.272,452.364,1126.115,455.653Z" transform="translate(-1101.107 -430.173)" fill="#5a4051"/>
        </g>
      </g>
    </g>
    <g id="Group_5751" data-name="Group 5751" transform="translate(1186.943 494.039)">
      <g id="Group_5750" data-name="Group 5750">
        <g id="Group_5749" data-name="Group 5749">
          <path id="Path_7291" data-name="Path 7291" d="M1108.14,468.559s.048-2.848,1.338-3.12,13.564-1.961,15.149-1.338l.68,3.758S1122.255,469.737,1108.14,468.559Z" transform="translate(-1108.14 -463.964)" fill="#e0e0e0"/>
        </g>
      </g>
    </g>
    <g id="Group_5754" data-name="Group 5754" transform="translate(1183.237 471.146)">
      <g id="Group_5753" data-name="Group 5753" transform="translate(0 0)">
        <g id="Group_5752" data-name="Group 5752">
          <path id="Path_7292" data-name="Path 7292" d="M1104.979,446.648c.332-2.333,2.985-5.014,4.5-1.38s-1.026,8.927-2.73,8.645S1104.53,449.814,1104.979,446.648Z" transform="translate(-1104.825 -443.487)" fill="#ffc8b7"/>
        </g>
      </g>
    </g>
    <g id="Group_5757" data-name="Group 5757" transform="translate(1135.481 532.269)">
      <g id="Group_5756" data-name="Group 5756">
        <g id="Group_5755" data-name="Group 5755">
          <path id="Path_7293" data-name="Path 7293" d="M1062.164,498.16a.028.028,0,0,1,.021,0C1062.1,498.2,1062.083,498.2,1062.164,498.16Z" transform="translate(-1062.11 -498.157)" fill="#323657"/>
        </g>
      </g>
    </g>
    <g id="Group_5760" data-name="Group 5760" transform="translate(1201.707 459.662)">
      <g id="Group_5759" data-name="Group 5759" transform="translate(0 0)">
        <g id="Group_5758" data-name="Group 5758">
          <path id="Path_7294" data-name="Path 7294" d="M1121.346,433.217s14.435-.678,2.52,21.855Z" transform="translate(-1121.346 -433.215)" fill="#5a4051"/>
        </g>
      </g>
    </g>
    <g id="Group_5761" data-name="Group 5761" transform="translate(1024.241 566.553)">
      <path id="Path_7388" data-name="Path 7388" d="M0,25l4.11-1V50H0Z" transform="translate(127.11 49.614) rotate(180)" fill="#706865"/>
      <rect id="Rectangle_1825" data-name="Rectangle 1825" width="4.11" height="126.614" transform="translate(4.11 126.614) rotate(180)" fill="#706865"/>
    </g>
    <g id="Group_5762" data-name="Group 5762" transform="translate(1055.773 464.676)">
      <path id="Rectangle_1826" data-name="Rectangle 1826" d="M3.607,0h99.384A3.607,3.607,0,0,1,106.6,3.607V71.592a3.607,3.607,0,0,1-3.607,3.607H3.608A3.608,3.608,0,0,1,0,71.591V3.607A3.607,3.607,0,0,1,3.607,0Z" transform="translate(106.599 75.199) rotate(180)" fill="#4270ed"/>
    </g>
    <g id="Group_5763" data-name="Group 5763" transform="translate(1059.948 468.741)">
      <rect id="Rectangle_1827" data-name="Rectangle 1827" width="98.25" height="59.35" transform="translate(98.25 59.35) rotate(180)" fill="#f5f7ff"/>
    </g>
    <g id="Group_5764" data-name="Group 5764" transform="translate(1059.948 468.741)" opacity="0.35">
      <path id="Path_7295" data-name="Path 7295" d="M994.551,441.336v4.722h98.25v-4.722" transform="translate(-994.551 -441.336)" fill="#cfdbfb"/>
    </g>
    <g id="Group_5765" data-name="Group 5765" transform="translate(1063.58 477.016)">
      <rect id="Rectangle_1828" data-name="Rectangle 1828" width="11.846" height="47.42" rx="2.233" transform="translate(11.846 47.42) rotate(180)" fill="#cfdbfb"/>
    </g>
    <g id="Group_5766" data-name="Group 5766" transform="translate(1133.81 477.016)">
      <path id="Rectangle_1829" data-name="Rectangle 1829" d="M1.205,0H20.4a1.206,1.206,0,0,1,1.206,1.206v1.98A1.206,1.206,0,0,1,20.4,4.392H1.206A1.206,1.206,0,0,1,0,3.186V1.205A1.205,1.205,0,0,1,1.205,0Z" transform="translate(21.608 4.392) rotate(180)" fill="#cfdbfb"/>
    </g>
    <g id="Group_5767" data-name="Group 5767" transform="translate(1133.81 484.352)">
      <path id="Rectangle_1830" data-name="Rectangle 1830" d="M2.491,0H19.118a2.49,2.49,0,0,1,2.49,2.49V38.8a2.49,2.49,0,0,1-2.49,2.49H2.49A2.49,2.49,0,0,1,0,38.8V2.491A2.491,2.491,0,0,1,2.491,0Z" transform="translate(21.608 41.295) rotate(180)" fill="#cfdbfb"/>
    </g>
    <g id="Group_5768" data-name="Group 5768" transform="translate(1105.634 530.345)">
      <path id="Path_7296" data-name="Path 7296" d="M1035.414,499.877a3.438,3.438,0,1,0,3.438-3.44A3.438,3.438,0,0,0,1035.414,499.877Z" transform="translate(-1035.414 -496.437)" fill="#203442"/>
    </g>
    <g id="Group_5769" data-name="Group 5769" transform="translate(1087.004 549.79)">
      <path id="Path_7297" data-name="Path 7297" d="M1018.751,523.491v-1.338s1.882-8.324,15.19-8.324,13.037,9.662,13.037,9.662Z" transform="translate(-1018.751 -513.829)" fill="#314875"/>
    </g>
    <g id="Group_5771" data-name="Group 5771" transform="translate(1091.5 545.871)">
      <g id="Group_5770" data-name="Group 5770">
        <path id="Path_7298" data-name="Path 7298" d="M1046.665,515.48a13.1,13.1,0,0,1-3.951-.865c-1.058-.637-7.395-4.9-8.884-4.217s-11.395,3.716-11.049,5.166,1.26,1.308,1.959,1.052,7.891-1.768,8.526-1.514c0,0-7.065,2.579-7.094,4.459s1.479,2.339,2.149,3.05,1.475,2.479,3.3,2.613,10.7-2.955,12.533-3.1,5.214.114,5.445-.184S1046.665,515.48,1046.665,515.48Z" transform="translate(-1022.772 -510.324)" fill="#ffc8b7"/>
      </g>
    </g>
    <g id="Group_5774" data-name="Group 5774" transform="translate(1112.404 497.934)">
      <g id="Group_5773" data-name="Group 5773">
        <g id="Group_5772" data-name="Group 5772">
          <path id="Path_7299" data-name="Path 7299" d="M1097.088,472.092c9.218-1.62,18.92-3.944,18.92-3.944l17.167-.7s15.755,3.468,21.96,6.271c.588.266.592,14.057,2.206,17.672l-5.144,10.853s-2.972,21.5-3.588,31.061c-.284,4.387.8,42.417.8,42.417s-1.543.761-13.257,2.053-40.99-.466-41.175-1.849,5.67-51.528,5.929-54.124c.4-3.986-1.15-22.4-1.15-22.4-2.208,2.966-7.835,16.355-13.7,22.728-3.452,3.746-20.537,6.044-23.757,6.151-7.01.235-19.8,1.63-20.172.948-.3-.409-1.115-11.351-.313-11.618.7-.234,24.449-1.6,30.532-4.829,2.226-1.183,8.88-15.69,8.88-15.69S1092,474.378,1097.088,472.092Z" transform="translate(-1041.469 -467.447)" fill="#0f3b87"/>
        </g>
      </g>
    </g>
    <g id="Group_5784" data-name="Group 5784" transform="translate(1082.743 479.122)">
      <path id="Path_7300" data-name="Path 7300" d="M1042.695,464.5a13.878,13.878,0,1,1-13.877-13.877A13.878,13.878,0,0,1,1042.695,464.5Z" transform="translate(-1014.939 -450.621)" fill="#cfdbfb"/>
      <g id="Group_5783" data-name="Group 5783" transform="translate(2.898 6.087)">
        <g id="Group_5775" data-name="Group 5775" transform="translate(1.941 12.219)">
          <path id="Path_7301" data-name="Path 7301" d="M1037.345,470.224l-1.024,3.672a13.8,13.8,0,0,1-6.31,2.443q-.617.077-1.249.1c-.151.006-.3.007-.455.007q-.674,0-1.332-.063a13.806,13.806,0,0,1-7.116-2.805c-.2-1.213-.407-2.556-.593-3.814,1.02-.379,4.266-1.484,6.315-2.177l.086-.028c.045-.016.089-.031.133-.045l.348-.117.319-.108c.419-.141.714-.242.822-.276h0l.041-.015h.023l2.755.207.462.034.144.01.063.017c.167.043.65.169,1.289.363l0,0C1033.7,468.126,1036.348,469.076,1037.345,470.224Z" transform="translate(-1019.267 -466.995)" fill="#d9c7c1"/>
        </g>
        <g id="Group_5776" data-name="Group 5776" transform="translate(7.696 0.861)">
          <path id="Path_7302" data-name="Path 7302" d="M1028.422,456.873s3.3.559,2.743,5.731-3.477,4.717-3.672,4.709-2.934.061-3.078-6.263C1024.415,461.05,1024.372,456.375,1028.422,456.873Z" transform="translate(-1024.415 -456.836)" fill="#eea987"/>
        </g>
        <g id="Group_5777" data-name="Group 5777" transform="translate(8.811 9.24)">
          <path id="Path_7303" data-name="Path 7303" d="M1029.751,464.929a12.019,12.019,0,0,0,.086,2.592c.2.463-2.652,1.93-4.425.259a18.257,18.257,0,0,0,.247-3.148C1025.548,463.81,1029.751,464.929,1029.751,464.929Z" transform="translate(-1025.412 -464.33)" fill="#eea987"/>
        </g>
        <g id="Group_5778" data-name="Group 5778" transform="translate(14.298 5)">
          <path id="Path_7304" data-name="Path 7304" d="M1030.535,460.7s.368-.381.5.012-.586,2.137-.54,2.216c0,0-.068.151-.154.066A18.97,18.97,0,0,1,1030.535,460.7Z" transform="translate(-1030.32 -460.538)" fill="#eea987"/>
        </g>
        <g id="Group_5779" data-name="Group 5779" transform="translate(7.214 4.848)">
          <path id="Path_7305" data-name="Path 7305" d="M1024.5,460.582s-.35-.4-.5-.01a6.64,6.64,0,0,0,.451,2.235s.113.179.2.1A19.049,19.049,0,0,0,1024.5,460.582Z" transform="translate(-1023.984 -460.402)" fill="#eea987"/>
        </g>
        <g id="Group_5780" data-name="Group 5780" transform="translate(7.465)">
          <path id="Path_7306" data-name="Path 7306" d="M1031.467,460.793c-.114.709-.221,1.234-.221,1.234l-.481.627a12.593,12.593,0,0,0-.045-1.607c-.028-.084-.059-.229-.094-.387-.056-.262-.113-.557-.151-.656a7.067,7.067,0,0,0-5.3.17s.02.212.019.452c0,.278-.032.587-.159.634-.236.087-.139,1.625-.139,1.625l-.384-.443s-.112-.8-.222-1.727v-.006c-.025-.216-.049-.437-.075-.657a4.325,4.325,0,0,1,1.248-3.609,5.967,5.967,0,0,1,4.293.019,1.492,1.492,0,0,1,.638.169C1031.751,458.12,1031.467,460.793,1031.467,460.793Z" transform="translate(-1024.208 -456.066)" fill="#e8734d"/>
        </g>
        <path id="Path_7307" data-name="Path 7307" d="M1025.836,465.587a2.11,2.11,0,0,0,1.753.707,2.389,2.389,0,0,0,1.756-.667,2.135,2.135,0,0,1-1.762,1.2A2.161,2.161,0,0,1,1025.836,465.587Z" transform="translate(-1016.551 -454.942)" fill="#c78d71"/>
        <path id="Path_7308" data-name="Path 7308" d="M1025.111,467.523a3.6,3.6,0,0,0,2.566,1.686c1.064.093,1.988-1.259,2.421-1.923A6.455,6.455,0,0,0,1025.111,467.523Z" transform="translate(-1016.636 -454.788)" fill="#eea987"/>
        <path id="Path_7309" data-name="Path 7309" d="M1029.52,466.81a9.189,9.189,0,0,1-2.114,1.832l.894,1.378,1.526-2.725Z" transform="translate(-1016.366 -454.798)" fill="#eddad3"/>
        <path id="Path_7310" data-name="Path 7310" d="M1025.529,466.995a6.154,6.154,0,0,0,2.162,1.626l-.983,1.419-1.716-2.484Z" transform="translate(-1016.651 -454.776)" fill="#eddad3"/>
        <path id="Path_7311" data-name="Path 7311" d="M1027.489,468.449l.767,1.165a1.6,1.6,0,0,1-1.554-.028Z" transform="translate(-1016.449 -454.604)" fill="#5073ab"/>
        <path id="Path_7312" data-name="Path 7312" d="M1037.1,469.976l-.022.076c-.083.3-.407,1.452-.828,2.984-.159.136-.322.272-.488.4-.187.149-.377.291-.572.429a13.8,13.8,0,0,1-6.31,2.443c.206-4.8.775-9.064.775-9.064q.676.179,1.281.352l0,0a29.314,29.314,0,0,1,5.915,2.234l.012.006C1037.025,469.928,1037.1,469.976,1037.1,469.976Z" transform="translate(-1016.192 -454.746)" fill="#323657"/>
        <path id="Path_7313" data-name="Path 7313" d="M1025.688,476.1a13.8,13.8,0,0,1-5.673-2.59,13.58,13.58,0,0,1-1.4-1.232c-.085-.085-.17-.173-.253-.262-.244-1.031-.4-1.7-.415-1.749v0s1.716-1.128,7.79-2.748v0C1025.737,467.662,1025.741,471.558,1025.688,476.1Z" transform="translate(-1017.482 -454.714)" fill="#323657"/>
        <path id="Path_7314" data-name="Path 7314" d="M1027.991,469.652c-.056,1.265-.061,3.72-.042,6.52-.151.006-.3.007-.455.007q-.674,0-1.332-.063a42.493,42.493,0,0,1,.922-6.469c.067-.281.108-.42.108-.42l.814.135C1028,469.451,1028,469.548,1027.991,469.652Z" transform="translate(-1016.512 -454.512)" fill="#5073ab"/>
        <g id="Group_5781" data-name="Group 5781" transform="translate(19.567 15.23)">
          <path id="Path_7315" data-name="Path 7315" d="M1037.071,471.175a14.014,14.014,0,0,1-1.551,1.573c-.159.136-.322.272-.488.4.006-.016.8-2.325,1.338-3.46C1036.738,469.933,1036.9,470.766,1037.071,471.175Z" transform="translate(-1035.033 -469.688)" fill="#323657"/>
        </g>
        <g id="Group_5782" data-name="Group 5782" transform="translate(0 15.554)">
          <path id="Path_7316" data-name="Path 7316" d="M1018.664,471.99c-.085-.085-.17-.173-.253-.262a13.311,13.311,0,0,1-.88-1.031,1.589,1.589,0,0,1,.465-.72v0Z" transform="translate(-1017.531 -469.978)" fill="#323657"/>
        </g>
      </g>
    </g>
    <g id="Group_5799" data-name="Group 5799" transform="translate(942.833 404.174)">
      <path id="Path_7317" data-name="Path 7317" d="M937.062,621.255a12.11,12.11,0,0,0-4.288-4.109c-2.479-1.154-7.561,2.87-8.007,5.108l-5.891,8.6,1.116.766,3.145-4.588c-2.141,5.152-5.2,11.32-3.051,14.421,2.883,4.161,9.426,8.369,11.153,7.642s1.382-12.832,1.382-12.832C930.756,625.575,937.062,621.255,937.062,621.255Z" transform="translate(-886.366 -356.045)" fill="#070707"/>
      <g id="Group_5785" data-name="Group 5785" transform="translate(38.391 261.102)">
        <path id="Path_7318" data-name="Path 7318" d="M936.441,621.234a66.658,66.658,0,0,0-3.25,7.333c-1.1,3.205-1.309,12.079-2,12.7s-6.176-2.15-6.908-5.468,1.491-9.951,3.608-13.438a21.66,21.66,0,0,1,4.267-5.231S935.89,617.852,936.441,621.234Z" transform="translate(-924.136 -617.125)" fill="#f4a99d"/>
      </g>
      <path id="Path_7319" data-name="Path 7319" d="M957.308,551.238s-3.357,17.817-3.357,22.077a39.208,39.208,0,0,1-3.873,16.4c-2.711,5.165-14.608,40.446-15.641,44.556s-1.918,7.99-1.918,7.99-5.939-2.711-5.939-6.585,5.165-35.892,6.068-42.217,8.393-38.732,8.393-38.732Z" transform="translate(-885.457 -363.799)" fill="#f4a99d"/>
      <path id="Path_7320" data-name="Path 7320" d="M939.352,550.275s1.162,14.847,1.033,18.72-1.938,12.654-1.938,14.978,0,50.474,1.925,56.284-5.41,1.812-5.41,1.812-12.781-31.671-12.781-44.885,1.548-19.8.644-28.19-4.92-19.439-4.92-19.439Z" transform="translate(-886.481 -363.997)" fill="#ffc8b7"/>
      <path id="Path_7321" data-name="Path 7321" d="M920.76,486.278a46.187,46.187,0,0,0-8.679,19.651c-1.807,11.232,2.14,32.412,3.544,38.541,1.232,5.377,3.586,22.588,3.716,24.4,0,0,23.1,2.616,40.659-2.936,0,0,1.608-24.036,2.641-34.237s-4.008-44.641-4.008-44.641Z" transform="translate(-887.223 -371.465)" fill="#fc5e5e"/>
      <path id="Path_7322" data-name="Path 7322" d="M945.054,645.405c-8.275-7.228-6.061-14.647-6.061-14.647a12.25,12.25,0,0,0-5.993-.505c-2.688.671-4.128,7.078-3.053,9.124l.836,10.524,1.365-.111-.446-5.616c1.6,5.422,3.115,12.229,6.783,13.3,4.924,1.441,12.755.588,13.654-1.087S945.054,645.405,945.054,645.405Z" transform="translate(-885.102 -354.498)" fill="#070707"/>
      <path id="Path_7323" data-name="Path 7323" d="M948.787,415.932s-2.047,12.187-.279,16.281-9.4-4.786-9.4-4.786S943.745,414,948.787,415.932Z" transform="translate(-883.978 -379.789)" fill="#5a4051"/>
      <path id="Path_7324" data-name="Path 7324" d="M946.267,385.668s-17.922-4.1-20.154,15.047,5.83,21.554.373,34.532,13.327-4.228,13.327-4.228Z" transform="translate(-885.586 -383.382)" fill="#5a4051"/>
      <path id="Path_7325" data-name="Path 7325" d="M944.339,385.38c4.6-.093,14.725,2.505,15.954,14.725a37.99,37.99,0,0,1-1.329,5.829c-.869,2.557,1.227,10.225.613,10.584a16.768,16.768,0,0,1-3.118.766s-2.915,8.233-5.829,8.079-13.89-2.744-18.8-13.226S925.762,385.755,944.339,385.38Z" transform="translate(-885.203 -383.373)" fill="#ffc8b7"/>
      <g id="Group_5787" data-name="Group 5787" transform="translate(9.009 144.792)">
        <g id="Group_5786" data-name="Group 5786">
          <path id="Path_7326" data-name="Path 7326" d="M897.856,521.928s.428-7.37,2.38-8.514.824,1.136.824,1.136-1.1,5.347-1.339,7.514A11.052,11.052,0,0,1,897.856,521.928Z" transform="translate(-897.856 -513.092)" fill="#203442"/>
        </g>
      </g>
      <g id="Group_5789" data-name="Group 5789" transform="translate(9.291 132.054)">
        <g id="Group_5788" data-name="Group 5788">
          <path id="Path_7327" data-name="Path 7327" d="M906.858,506.682a54.233,54.233,0,0,0,1.545,6.489c1,3.184,1.923,4.2,1.522,6.024-.3,1.378-1.863,2.413-2.255,1.971s-.585-5.8-2.8-5.773.663,6.633-.657,6.148-6.406-3.271-6.086-5.97,2.355-4.651,2.224-8.684c-.12-3.658,1.02-5.188,1.02-5.188Z" transform="translate(-898.108 -501.699)" fill="#eea886"/>
        </g>
      </g>
      <g id="Group_5791" data-name="Group 5791" transform="translate(14.764 145.492)">
        <g id="Group_5790" data-name="Group 5790">
          <path id="Path_7328" data-name="Path 7328" d="M904.507,513.749s2.956.756,2.779,10.752l-3.346-.558s.063-5.525-.937-8.537C903,515.406,903.173,513.451,904.507,513.749Z" transform="translate(-903.003 -513.718)" fill="#203442"/>
        </g>
      </g>
      <g id="Group_5793" data-name="Group 5793" transform="translate(2.479 151.138)">
        <g id="Group_5792" data-name="Group 5792">
          <path id="Path_7329" data-name="Path 7329" d="M918.074,526.16l-26.059-7.392.076,32.093,25.934,15.544Z" transform="translate(-892.015 -518.769)" fill="#ffdfdf"/>
        </g>
      </g>
      <g id="Group_5794" data-name="Group 5794" transform="translate(0 151.138)">
        <path id="Path_7330" data-name="Path 7330" d="M918.287,566.406l-3.265.6L889.8,551.321l.313-32.406,2.166-.147Z" transform="translate(-889.798 -518.769)" fill="#ffdfdf"/>
      </g>
      <path id="Path_7331" data-name="Path 7331" d="M948.661,425.923s6.947,2.852,8.187,3.721,3.722,10.915,4.341,11.784,6.613,8.318,5.783,14.359c-.65,4.745-3.333,7.257-5.07,9.116s-3.344,11.878-3.888,13.366S959.2,499.3,959.2,499.3s-20.382,7.932-38.617-5.589c0,0,3.641-13.083,3.641-15.44s-2.357-18.978-8.684-28.778,1.117-20.22,5.953-21.458,14.142-4.715,14.142-4.715Z" transform="translate(-887.047 -378.895)" fill="#dd4b4b"/>
      <path id="Path_7332" data-name="Path 7332" d="M928.118,426.212s-10.2-.628-15.318,5.326-4.837,13.024-6.14,16.094-4.279,16.279-4.93,18.42-1.286,14.166-2.216,23.842-.742,27.742-.742,27.742l9.76-1.77s.394-17.223.641-27.208,8.373-27.629,11.443-35.353S935.909,431.056,928.118,426.212Z" transform="translate(-888.741 -378.556)" fill="#fc5e5e"/>
      <path id="Path_7333" data-name="Path 7333" d="M951.776,428.472a8.42,8.42,0,0,1,6.625,4.75c2.14,4.465,2.958,8.179,3.516,9.3s8.3,15.823,8.764,19.079-.278,9.21-4.373,10.792-18.793,1.768-18.793,1.768,3.721-7.561.279-11.469c0,0,10.667-1.927,13.192-2.182C963.65,460.237,948.4,431.82,951.776,428.472Z" transform="translate(-882.986 -378.287)" fill="#eb4747"/>
      <g id="Group_5795" data-name="Group 5795" transform="translate(44.353 52.979)">
        <path id="Path_7334" data-name="Path 7334" d="M929.469,440.8l19.876,46.421,24.779-11.673L955.8,430.971Z" transform="translate(-929.469 -430.971)" fill="#203442"/>
      </g>
      <g id="Group_5796" data-name="Group 5796" transform="translate(51.9 85.617)">
        <path id="Path_7335" data-name="Path 7335" d="M940.074,460.164s-2.69.714-3.543.84.2,1.7,1.248,1.749S940.074,460.164,940.074,460.164Z" transform="translate(-936.219 -460.164)" fill="#eea886"/>
      </g>
      <g id="Group_5797" data-name="Group 5797" transform="translate(51.901 84.401)">
        <path id="Path_7336" data-name="Path 7336" d="M941.88,473.5a5.667,5.667,0,0,0,1.781-.356s.929-.609,1.614-1a5.557,5.557,0,0,1,.543-.281,10.421,10.421,0,0,0,2.992-1.459c1.167-.907,4.969-4.528,4.969-4.528l-2.513-3.788-1.941-3.014s-8.168.223-9.354.944a3.662,3.662,0,0,0-.328.222,13.31,13.31,0,0,0-1.8,2.056c-.165.159-1.707,1.84-1.614,2.516a2.228,2.228,0,0,0,1.183,1.813,5.34,5.34,0,0,0,1.283,2.633,3.309,3.309,0,0,0,1.724,2.36S940.863,473.309,941.88,473.5Z" transform="translate(-936.22 -459.076)" fill="#eea886"/>
      </g>
      <path id="Path_7337" data-name="Path 7337" d="M947.766,461.059s12.1-2.163,15.443-2.518a41.733,41.733,0,0,0-.382-7.843c-.61-3.6-3.565-8.428-3.565-8.428l6.188,5.668s5.088,9.748,5.2,12.029.718,5.8-2.292,9.366-17.223,1.935-17.223,1.935S952.324,466.892,947.766,461.059Z" transform="translate(-882.957 -376.658)" fill="#fc5e5e"/>
      <path id="Path_7338" data-name="Path 7338" d="M945.884,420.429s-.392,1.155-.847,2.871c-.233.878-.484,1.9-.707,2.99-.615,3.017-1.024,6.549-.305,8.932,0,0-6.511,2.052-11.349-7.2,0,0,2.464-9.757-.211-15.791S945.884,420.429,945.884,420.429Z" transform="translate(-884.798 -380.38)" fill="#ffc8b7"/>
      <path id="Path_7339" data-name="Path 7339" d="M960.4,400.317s-7.6,4.875-15.034,5.693S933.8,418.067,933.8,418.067s-11.683-18.192-2.275-29.374S962.406,386.171,960.4,400.317Z" transform="translate(-885.306 -383.584)" fill="#5a4051"/>
      <path id="Path_7340" data-name="Path 7340" d="M941.281,403.522c0-1.434-1.534-3.629-3.938-1.737s.562,8.794,2.505,8.18S941.281,405,941.281,403.522Z" transform="translate(-884.293 -381.523)" fill="#ffc8b7"/>
      <path id="Path_7341" data-name="Path 7341" d="M947.01,426.172s3.062,9.041-4.1,8.993-10.281-5.679-12.327-10.676a26.02,26.02,0,0,1,4.838-1.836C936.955,422.421,947.01,426.172,947.01,426.172Z" transform="translate(-884.985 -378.975)" fill="#ffc8b7"/>
      <path id="Path_7342" data-name="Path 7342" d="M907.194,523.094l-3.359.434,0-1.567Z" transform="translate(-888.141 -367.254)" fill="#1d3b54"/>
      <path id="Path_7343" data-name="Path 7343" d="M899.745,520.966l-1.856.22s-.006-.559.01-.745S899.681,520.849,899.745,520.966Z" transform="translate(-888.843 -367.437)" fill="#1d3b54"/>
      <g id="Group_5798" data-name="Group 5798" transform="translate(47.531 275.115)">
        <path id="Path_7344" data-name="Path 7344" d="M938.672,630.8a67.788,67.788,0,0,0,2.114,7.846c1.172,3.228,6.662,10.346,6.507,11.275s-6.234,2.243-8.923.1-5.166-8.79-5.721-12.884a30.378,30.378,0,0,1-.261-6.737S936.084,628.49,938.672,630.8Z" transform="translate(-932.311 -629.659)" fill="#ffc8b7"/>
      </g>
      <path id="Path_7345" data-name="Path 7345" d="M945.2,420.846c-.234.877-.579,1.934-.847,2.978a31.035,31.035,0,0,1-8.7-8.686C938.994,418.331,945.2,420.846,945.2,420.846Z" transform="translate(-884.386 -379.86)" fill="#f4a99d"/>
    </g>
    <g id="Group_5801" data-name="Group 5801" transform="translate(674.695 514.563)">
      <g id="Group_5800" data-name="Group 5800" transform="translate(0)">
        <path id="Path_7346" data-name="Path 7346" d="M649.986,482.322a.071.071,0,0,0-.022,0C650.056,482.36,650.069,482.365,649.986,482.322Z" transform="translate(-649.964 -482.321)" fill="#323657"/>
      </g>
    </g>
    <path id="Rectangle_1831" data-name="Rectangle 1831" d="M4.144,0h17.7a4.145,4.145,0,0,1,4.145,4.145V52.271a4.144,4.144,0,0,1-4.144,4.144H4.144A4.144,4.144,0,0,1,0,52.271V4.144A4.144,4.144,0,0,1,4.144,0Z" transform="translate(719.335 409.189)" fill="#cfdbfb"/>
    <g id="Group_5804" data-name="Group 5804" transform="translate(563.161 573.116)">
      <g id="Group_5803" data-name="Group 5803">
        <g id="Group_5802" data-name="Group 5802">
          <path id="Path_7347" data-name="Path 7347" d="M560.311,535.975a9.42,9.42,0,0,1,1.222,3.235,15.52,15.52,0,0,0,1.495,3.819,36.413,36.413,0,0,1,1.816,6.368c.019.456-1,3.339-.856,4.262s.672,2.748-.155,2.87-1.768-1.376-1.768-1.376a1.216,1.216,0,0,1-.622,1.173,2.053,2.053,0,0,1-2.084.076s-.5.934-1.134,1.06a2.563,2.563,0,0,1-2.072-.281,2.519,2.519,0,0,1-1.574.5,2.063,2.063,0,0,1-1.746-1.086s-1.557.315-2.008-.41a7.016,7.016,0,0,1-.561-2.159,25.162,25.162,0,0,1,1.974-10.884c2.019-4.279-.514-8.454-.514-8.454Z" transform="translate(-550.203 -534.693)" fill="#ffc8b7"/>
        </g>
      </g>
    </g>
    <g id="Group_5806" data-name="Group 5806" transform="translate(563.078 585.16)">
      <g id="Group_5805" data-name="Group 5805">
        <path id="Path_7348" data-name="Path 7348" d="M562.292,553.326s.139-5.334-1.266-6.469-1.563.789-1.563.789.19-1.9-1.343-2.16-1.6,2-1.6,2a1.483,1.483,0,0,0-1.863-1.165c-1.612.3-1.228,2.173-1.228,2.173s-1.538-1.836-2.538-.074c-1.685,2.978-.06,6.495-.06,6.495s.475.8,2.008.41c0,0,1.026,2.066,3.32.581,0,0,2.349,1.292,3.205-.779A1.944,1.944,0,0,0,562.292,553.326Z" transform="translate(-550.129 -545.466)" fill="#f4a99d"/>
      </g>
    </g>
    <path id="Path_7349" data-name="Path 7349" d="M578.374,468.438s-9.131,30.43-12.215,41.655c-.967,3.521-3.308,37.137-3.722,38.49s-11.994,3.209-11.994,3.209,1.4-42.055,1.534-44.349,12.778-49.259,16.456-50.933c2.755-1.254,4.209-.217,7.682,2.361C580.988,462.488,578.374,468.438,578.374,468.438Z" transform="translate(12.986 29.133)" fill="#134de9"/>
    <g id="Group_5807" data-name="Group 5807" transform="translate(680.395 441.272)">
      <rect id="Rectangle_1832" data-name="Rectangle 1832" width="24.977" height="1.855" transform="translate(0 13.672) rotate(-33.188)" fill="#4da8f2"/>
    </g>
    <path id="Path_7350" data-name="Path 7350" d="M678.28,424.47a5.475,5.475,0,0,1-.54,1.658s-.683.814-1.135,1.423a5.352,5.352,0,0,0-.328.485,9.966,9.966,0,0,1-1.727,2.683c-.993,1.01-4.87,4.221-4.87,4.221l-3.322-2.82-3.448-1.546s1.931-8.392,2.748-9.441a3.483,3.483,0,0,1,.249-.285,12.7,12.7,0,0,1,2.162-1.487c.169-.14,1.943-1.418,2.575-1.253a2.139,2.139,0,0,1,1.594,1.33,5.107,5.107,0,0,1,2.361,1.519,3.172,3.172,0,0,1,2.053,1.905S678.21,423.481,678.28,424.47Z" transform="translate(26.259 24.662)" fill="#ffc8b7"/>
    <g id="Group_5809" data-name="Group 5809" transform="translate(573.016 704.591)">
      <g id="Group_5808" data-name="Group 5808" transform="translate(0)">
        <path id="Path_7351" data-name="Path 7351" d="M569.954,653.036s-.833,5.776-.937,6.644-9.258-.512-9.258-.512l-.741-6.877S568.81,652.221,569.954,653.036Z" transform="translate(-559.018 -652.29)" fill="#c1a499"/>
      </g>
    </g>
    <g id="Group_5811" data-name="Group 5811" transform="translate(571.586 710.854)">
      <g id="Group_5810" data-name="Group 5810">
        <path id="Path_7352" data-name="Path 7352" d="M569.266,658.284a24.736,24.736,0,0,0,5.705,5c2.805,1.516,7.213,2.117,8.873,3.687,1.2,1.135,4.361,6.014-7.289,5.915s-17.268.69-18.517-1.181,1.807-13.813,1.807-13.813S562.6,658.886,569.266,658.284Z" transform="translate(-557.738 -657.892)" fill="#070707"/>
      </g>
    </g>
    <g id="Group_5813" data-name="Group 5813" transform="translate(638.606 704.591)">
      <g id="Group_5812" data-name="Group 5812">
        <path id="Path_7353" data-name="Path 7353" d="M628.619,653.036s-.832,5.776-.936,6.644-9.258-.512-9.258-.512l-.741-6.877S627.476,652.221,628.619,653.036Z" transform="translate(-617.684 -652.29)" fill="#c1a499"/>
      </g>
    </g>
    <g id="Group_5815" data-name="Group 5815" transform="translate(571.585 556.902)">
      <g id="Group_5814" data-name="Group 5814">
        <path id="Path_7354" data-name="Path 7354" d="M577.686,520.191s-8.6,13.667-7.96,26.018-3.118,25.841-4.411,38.745c-1.44,14.385-7.335,48.442-7.55,56.139s.916,32.268.916,32.268l11.8.268s9.91-59.54,12.477-65.615,15.3-49.387,15.724-54.247S577.686,520.191,577.686,520.191Z" transform="translate(-557.738 -520.191)" fill="#0f3b87"/>
      </g>
    </g>
    <g id="Group_5817" data-name="Group 5817" transform="translate(587.204 554.548)">
      <g id="Group_5816" data-name="Group 5816" transform="translate(0)">
        <path id="Path_7355" data-name="Path 7355" d="M621.315,522.292s6.482,33.858,7.338,41.417,1.425,36.588,1.854,41.314,4,61.693,5.134,68.855H620.554s-11.58-41.515-11.58-61.16-8.946-42.7-14.721-55.665-19-13.266-22.545-37.314C571.708,519.74,616.509,514.665,621.315,522.292Z" transform="translate(-571.708 -518.085)" fill="#0f3b87"/>
      </g>
    </g>
    <g id="Group_5819" data-name="Group 5819" transform="translate(579.145 453.836)">
      <g id="Group_5818" data-name="Group 5818" transform="translate(0)">
        <path id="Path_7356" data-name="Path 7356" d="M629.174,458.511c-9.153-1.206-22.08-4.443-22.08-4.443l-17.69-.721s-16.236,3.575-22.63,6.463c-.607.275-.609,14.485-2.274,18.21l5.3,11.185s3.062,22.156,3.7,32.009c.292,4.522-6.317,42.413-6.317,42.413a122.149,122.149,0,0,0,19.155,3.414c12.072,1.332,42.24-.48,42.43-1.906s-5.842-53.1-6.109-55.777c-.41-4.108,1.415-25.931,1.415-25.931,2.787-2.163,27.264-13.523,33.941-19.444,1.787-1.585,9.329-8.928,11.474-11.464,7.591-8.978,13.815-16.679,14.573-18.339.86-.945-8.25-5.9-9.076-6.173-.723-.243-10.986,13.055-14.937,17.335-1.761,1.907-9.083,7.235-9.083,7.235S634.9,458.84,629.174,458.511Z" transform="translate(-564.5 -428.004)" fill="#134de9"/>
      </g>
    </g>
    <path id="Path_7357" data-name="Path 7357" d="M674.771,418.346l1.208-1.842-2.223.29Z" transform="translate(27.539 24.475)" fill="#dfe1e8"/>
    <g id="Group_5830" data-name="Group 5830" transform="translate(596.937 436.167)">
      <g id="Group_5821" data-name="Group 5821" transform="translate(2.439 7.657)">
        <g id="Group_5820" data-name="Group 5820">
          <path id="Path_7358" data-name="Path 7358" d="M589.2,419.924s10.4-3.731,15.074,4.214,4,23.715-1.243,25.586-13.071.752-15.677-4.213-4.925-12.128-4.746-16.891S586.46,421.264,589.2,419.924Z" transform="translate(-582.595 -419.049)" fill="#ffc8b7"/>
        </g>
      </g>
      <g id="Group_5823" data-name="Group 5823" transform="translate(5.234 28.642)">
        <g id="Group_5822" data-name="Group 5822">
          <path id="Path_7359" data-name="Path 7359" d="M601.6,447.857s-.468,2.788.226,4.175-13.432.117-13.432.117A96.488,96.488,0,0,0,585.26,439.4C583.17,433.048,601.6,447.857,601.6,447.857Z" transform="translate(-585.095 -437.819)" fill="#ffc8b7"/>
        </g>
      </g>
      <g id="Group_5825" data-name="Group 5825" transform="translate(1.61 0)">
        <g id="Group_5824" data-name="Group 5824">
          <path id="Path_7360" data-name="Path 7360" d="M585.643,442.428s.953,1.622,4.941,1.051,8.913-5.8,10.582-6.363,1.7-1.534,1.7-1.534l1.591,2.481,1.193-.813s-1.83-5.715.907-6.656c.305-.105,2.891-19.441,1.637-18.35-7.068,6.152-12.465,6.186-16.776,7.278,0,0-9.837,2.571-9.556,8.15S583.485,439.623,585.643,442.428Z" transform="translate(-581.854 -412.2)" fill="#5a4051"/>
        </g>
      </g>
      <g id="Group_5827" data-name="Group 5827" transform="translate(18.654 19.289)">
        <g id="Group_5826" data-name="Group 5826">
          <path id="Path_7361" data-name="Path 7361" d="M600.828,431.516c-.21-.939-2.552-3.641-3.5-.793s1.288,6.727,2.566,6.414S601.362,433.894,600.828,431.516Z" transform="translate(-597.098 -429.453)" fill="#ffc8b7"/>
        </g>
      </g>
      <g id="Group_5829" data-name="Group 5829" transform="translate(0 9.424)">
        <g id="Group_5828" data-name="Group 5828">
          <path id="Path_7362" data-name="Path 7362" d="M586.494,420.629s-13.215.858-.681,20.8Z" transform="translate(-580.413 -420.629)" fill="#5a4051"/>
        </g>
      </g>
    </g>
    <g id="Group_5832" data-name="Group 5832" transform="translate(604.05 475.586)">
      <g id="Group_5831" data-name="Group 5831" transform="translate(0 0)">
        <path id="Path_7363" data-name="Path 7363" d="M604.465,451.774s-.049-2.934-1.38-3.215-14.678-1.564-16.31-.923v3.418S589.921,452.989,604.465,451.774Z" transform="translate(-586.776 -447.458)" fill="#e0e0e0"/>
      </g>
    </g>
    <g id="Group_5833" data-name="Group 5833" transform="translate(833.907 381.588)">
      <path id="Path_7364" data-name="Path 7364" d="M806.18,363.508s11.412,1.851,9.506,18.85-11.978,15.482-12.653,15.457-10.127.188-10.664-20.6C792.37,377.214,792.2,361.845,806.18,363.508Z" transform="translate(-792.37 -363.382)" fill="#ffc8b7"/>
    </g>
    <rect id="Rectangle_1833" data-name="Rectangle 1833" width="23.478" height="4.472" rx="2" transform="translate(679.608 390.329)" fill="#f7f7f7"/>
    <path id="Path_7365" data-name="Path 7365" d="M793.276,377.923s1.646,10.544,4.826,11.339,2.386-2.386,14.314,0a78.753,78.753,0,0,0,3.976-11.133l.8.795s-2.386,15.9-9.543,19.086-13.518-10.338-13.518-10.338l-2.769-8.32Z" transform="translate(41.418 19.922)" fill="#5a4051"/>
    <path id="Path_7366" data-name="Path 7366" d="M792.054,383.608s-.486-3.206,4.325-4.81c0,0-2.4-5.612,2.4-5.612,0,0,2.406.8,2.406,2.4s11.224,1.6,13.63,0c0,0,0,5.612,2.4,5.612,0,0,4.811-11.225,0-15.233s-12.026-4.009-20.845,0S792.054,383.608,792.054,383.608Z" transform="translate(41.365 18.156)" fill="#5a4051"/>
    <g id="Group_5835" data-name="Group 5835" transform="translate(637.083 711.343)">
      <g id="Group_5834" data-name="Group 5834" transform="translate(0)">
        <path id="Path_7367" data-name="Path 7367" d="M627.849,658.721a24.75,24.75,0,0,0,5.706,5c2.805,1.516,13.128,2.763,14.787,4.333,1.2,1.134,3.189,5.7-13.2,5.269-11.646-.3-17.268.69-18.516-1.181s1.806-13.813,1.806-13.813S621.028,659.39,627.849,658.721Z" transform="translate(-616.322 -658.329)" fill="#070707"/>
      </g>
    </g>
    <g id="Group_5836" data-name="Group 5836" transform="translate(1143.618 541.531)">
      <path id="Path_7368" data-name="Path 7368" d="M1138.643,609.33l5.141,58.082a1.813,1.813,0,0,1-1.8,2.008h0a1.813,1.813,0,0,1-1.761-1.383L1128.692,610.1Z" transform="translate(-1062.39 -494.3)" fill="#062d66"/>
      <path id="Path_7369" data-name="Path 7369" d="M1081.487,615.56l-5.141,50.043a1.814,1.814,0,0,0,1.8,2.009h0c.835,0,1.563-.571,1.761-3.619l11.528-49.9Z" transform="translate(-1068.569 -493.738)" fill="#062d66"/>
      <path id="Path_7370" data-name="Path 7370" d="M1082.307,628.264s-22.965-6.125-7.655-31.385c13.669-22.554,46.961-21.369,54.393-20.8a2.647,2.647,0,0,0,2.391-1.14c2.949-4.273,12.109-18.425,12.109-29.343,0-13.013,1.76-33.526,12.248-38.082,17.561-7.628,13.779,28.13,13.779,28.13V580.8s.69,29.089-26.792,42.1C1123.508,632.032,1082.307,628.264,1082.307,628.264Z" transform="translate(-1070.389 -506.442)" fill="#134de9"/>
    </g>
    <g id="Group_5837" data-name="Group 5837" transform="translate(729.139 288.755)">
      <path id="Path_7371" data-name="Path 7371" d="M731.392,305.752c-3.891-1.821-7.861-4.82-10.551-14.346a10.4,10.4,0,0,0-20.012,5.649c2.691,9.534.874,14.163-1.492,17.748a4.115,4.115,0,0,0-.522,3.372,1.183,1.183,0,0,0,1.459.817l10.8-3.049a5.79,5.79,0,0,0,10.91-3.08l10.8-3.049a1.182,1.182,0,0,0,.817-1.459A4.1,4.1,0,0,0,731.392,305.752Zm-14.252,10.81a3.43,3.43,0,0,1-3.7-1.286l6.186-1.746A3.431,3.431,0,0,1,717.14,316.562Zm-15.923-.294a1.867,1.867,0,0,1,.1-.165c3.609-5.467,4.146-11.356,1.792-19.69a8.032,8.032,0,0,1,15.46-4.364c2.351,8.327,5.886,13.066,11.826,15.847a1.88,1.88,0,0,1,.169.091Z" transform="translate(-698.66 -279.938)" fill="#4270ed"/>
      <circle id="Ellipse_1914" data-name="Ellipse 1914" cx="6.708" cy="6.708" r="6.708" transform="translate(11.652 0)" fill="#fc5e5e"/>
    </g>
    <g id="Group_5838" data-name="Group 5838" transform="translate(915.964 388.486)">
      <path id="Path_7372" data-name="Path 7372" d="M900.4,400.965h0V382.811a2.388,2.388,0,0,0-2.4-2.374H868.167a2.387,2.387,0,0,0-2.4,2.374v17.153a2.387,2.387,0,0,0,2.4,2.374h.852a.9.9,0,0,1,.9.807.684.684,0,0,1,.006.083v6.446l7.155-7.07.032-.03.006,0a.9.9,0,0,1,.6-.233h21.338A1.357,1.357,0,0,0,900.4,400.965Z" transform="translate(-865.765 -368.267)" fill="#4270ed"/>
      <path id="Path_7373" data-name="Path 7373" d="M876.807,390.079h0V371.926a2.374,2.374,0,0,1,2.375-2.374h29.472a2.374,2.374,0,0,1,2.374,2.374v17.153a2.374,2.374,0,0,1-2.374,2.374h-.843a.888.888,0,0,0-.885.807.665.665,0,0,0,0,.082v6.448l-7.071-7.07a.275.275,0,0,0-.032-.03l0,0a.883.883,0,0,0-.6-.231H878.13A1.351,1.351,0,0,1,876.807,390.079Z" transform="translate(-864.462 -369.552)" fill="#fff" stroke="#a0b7f6" stroke-miterlimit="10" stroke-width="2"/>
    </g>
    <rect id="Rectangle_1834" data-name="Rectangle 1834" width="67.931" height="6.176" rx="2" transform="translate(873.784 275.185)" fill="#a0b7f6"/>
    <rect id="Rectangle_1835" data-name="Rectangle 1835" width="67.931" height="6.176" rx="2" transform="translate(873.784 305.856)" fill="#fc5e5e"/>
    <rect id="Rectangle_1836" data-name="Rectangle 1836" width="67.931" height="6.176" rx="2" transform="translate(873.784 335.494)" fill="#a0b7f6"/>
    <g id="Group_5839" data-name="Group 5839" transform="translate(655.966 576.917)">
      <path id="Path_7374" data-name="Path 7374" d="M633.212,588.376v-39.9s0-10.383,9.344-10.383h98.57l-10.4,9.595c.012.257.02.518.02.788v39.9s0,10.383-9.346,10.383h-78.84s-9.344,0-9.344-10.383Z" transform="translate(-633.212 -538.093)" fill="#cfdbfb"/>
      <path id="Path_7375" data-name="Path 7375" d="M641.255,547.192V549.5H721.38v-2.307Z" transform="translate(-632.263 -537.019)" fill="#fff"/>
      <path id="Path_7376" data-name="Path 7376" d="M641.255,567.15v2.308H721.38V567.15Z" transform="translate(-632.263 -534.664)" fill="#fff"/>
      <path id="Path_7377" data-name="Path 7377" d="M641.255,560.5V562.8H721.38V560.5Z" transform="translate(-632.263 -535.449)" fill="#fff"/>
      <path id="Path_7378" data-name="Path 7378" d="M641.255,573.8v2.308H721.38V573.8Z" transform="translate(-632.263 -533.879)" fill="#fff"/>
      <path id="Path_7379" data-name="Path 7379" d="M641.255,580.455v2.308h65.49v-2.308Z" transform="translate(-632.263 -533.094)" fill="#fff"/>
      <path id="Path_7380" data-name="Path 7380" d="M641.255,553.845v2.307H721.38v-2.307Z" transform="translate(-632.263 -536.234)" fill="#fff"/>
    </g>
    <g id="Group_5840" data-name="Group 5840" transform="translate(648.449 505.285)">
      <path id="Path_7381" data-name="Path 7381" d="M734.4,524.3V484.4s0-10.382-9.344-10.382h-98.57l10.4,9.595c-.012.256-.02.518-.02.787v39.9s0,10.383,9.345,10.383h78.84s9.344,0,9.344-10.383Z" transform="translate(-626.488 -474.022)" fill="#ffc8b7"/>
      <path id="Path_7382" data-name="Path 7382" d="M723.426,483.121v2.307H643.3v-2.307Z" transform="translate(-624.504 -472.948)" fill="#fff"/>
      <path id="Path_7383" data-name="Path 7383" d="M723.426,503.078v2.308H643.3v-2.308Z" transform="translate(-624.504 -470.593)" fill="#fff"/>
      <path id="Path_7384" data-name="Path 7384" d="M723.426,496.426v2.307H643.3v-2.307Z" transform="translate(-624.504 -471.378)" fill="#fff"/>
      <path id="Path_7385" data-name="Path 7385" d="M723.426,509.731v2.308H643.3v-2.308Z" transform="translate(-624.504 -469.808)" fill="#fff"/>
      <path id="Path_7386" data-name="Path 7386" d="M721.881,516.383v2.308h-65.49v-2.308Z" transform="translate(-622.959 -469.023)" fill="#fff"/>
      <path id="Path_7387" data-name="Path 7387" d="M723.426,489.773v2.307H643.3v-2.307Z" transform="translate(-624.504 -472.163)" fill="#fff"/>
    </g>
  </g>
</svg>
